<mxfile host="Electron" agent="Mozilla/5.0 (Macintosh; Intel Mac OS X 10_15_7) AppleWebKit/537.36 (KHTML, like Gecko) draw.io/25.0.2 Chrome/128.0.6613.186 Electron/32.2.5 Safari/537.36" version="25.0.2">
  <diagram name="第 1 页" id="7BL5hV9bWVQ66GYFPng0">
    <mxGraphModel dx="1737" dy="682" grid="1" gridSize="10" guides="1" tooltips="1" connect="1" arrows="1" fold="1" page="1" pageScale="1" pageWidth="827" pageHeight="1169" math="0" shadow="0">
      <root>
        <mxCell id="0" />
        <mxCell id="1" parent="0" />
        <mxCell id="lmZSOKVcZS9rsBFb3nAs-33" style="edgeStyle=orthogonalEdgeStyle;rounded=0;orthogonalLoop=1;jettySize=auto;html=1;entryX=0.5;entryY=0;entryDx=0;entryDy=0;" edge="1" parent="1" source="lmZSOKVcZS9rsBFb3nAs-1" target="lmZSOKVcZS9rsBFb3nAs-32">
          <mxGeometry relative="1" as="geometry" />
        </mxCell>
        <mxCell id="lmZSOKVcZS9rsBFb3nAs-1" value="" style="ellipse;fillColor=strokeColor;html=1;" vertex="1" parent="1">
          <mxGeometry x="105" y="30" width="30" height="30" as="geometry" />
        </mxCell>
        <mxCell id="lmZSOKVcZS9rsBFb3nAs-12" value="" style="edgeStyle=orthogonalEdgeStyle;rounded=0;orthogonalLoop=1;jettySize=auto;html=1;" edge="1" parent="1">
          <mxGeometry relative="1" as="geometry">
            <mxPoint x="120" y="330" as="sourcePoint" />
            <mxPoint x="120" y="410" as="targetPoint" />
          </mxGeometry>
        </mxCell>
        <mxCell id="lmZSOKVcZS9rsBFb3nAs-13" value="submit application" style="text;html=1;align=center;verticalAlign=middle;resizable=0;points=[];autosize=1;strokeColor=none;fillColor=none;" vertex="1" parent="1">
          <mxGeometry y="210" width="120" height="30" as="geometry" />
        </mxCell>
        <mxCell id="lmZSOKVcZS9rsBFb3nAs-37" value="" style="edgeStyle=orthogonalEdgeStyle;rounded=0;orthogonalLoop=1;jettySize=auto;html=1;exitX=0.5;exitY=0;exitDx=0;exitDy=0;" edge="1" parent="1" source="lmZSOKVcZS9rsBFb3nAs-16" target="lmZSOKVcZS9rsBFb3nAs-31">
          <mxGeometry relative="1" as="geometry" />
        </mxCell>
        <mxCell id="lmZSOKVcZS9rsBFb3nAs-39" value="" style="edgeStyle=orthogonalEdgeStyle;rounded=0;orthogonalLoop=1;jettySize=auto;html=1;" edge="1" parent="1" source="lmZSOKVcZS9rsBFb3nAs-16" target="lmZSOKVcZS9rsBFb3nAs-38">
          <mxGeometry relative="1" as="geometry" />
        </mxCell>
        <mxCell id="lmZSOKVcZS9rsBFb3nAs-16" value="Approved" style="whiteSpace=wrap;html=1;rounded=1;" vertex="1" parent="1">
          <mxGeometry x="60" y="410" width="120" height="60" as="geometry" />
        </mxCell>
        <mxCell id="lmZSOKVcZS9rsBFb3nAs-18" value="meet_advisor" style="text;html=1;align=center;verticalAlign=middle;resizable=0;points=[];autosize=1;strokeColor=none;fillColor=none;" vertex="1" parent="1">
          <mxGeometry x="170" y="470" width="100" height="30" as="geometry" />
        </mxCell>
        <mxCell id="lmZSOKVcZS9rsBFb3nAs-24" value="" style="edgeStyle=orthogonalEdgeStyle;rounded=0;orthogonalLoop=1;jettySize=auto;html=1;" edge="1" parent="1" source="lmZSOKVcZS9rsBFb3nAs-19" target="lmZSOKVcZS9rsBFb3nAs-23">
          <mxGeometry relative="1" as="geometry" />
        </mxCell>
        <mxCell id="lmZSOKVcZS9rsBFb3nAs-19" value="Enrolled" style="whiteSpace=wrap;html=1;rounded=1;" vertex="1" parent="1">
          <mxGeometry x="260" y="270" width="120" height="60" as="geometry" />
        </mxCell>
        <mxCell id="lmZSOKVcZS9rsBFb3nAs-29" value="" style="edgeStyle=orthogonalEdgeStyle;rounded=0;orthogonalLoop=1;jettySize=auto;html=1;" edge="1" parent="1" source="lmZSOKVcZS9rsBFb3nAs-23" target="lmZSOKVcZS9rsBFb3nAs-28">
          <mxGeometry relative="1" as="geometry" />
        </mxCell>
        <mxCell id="lmZSOKVcZS9rsBFb3nAs-23" value="Graduted" style="whiteSpace=wrap;html=1;rounded=1;" vertex="1" parent="1">
          <mxGeometry x="454" y="270" width="120" height="60" as="geometry" />
        </mxCell>
        <mxCell id="lmZSOKVcZS9rsBFb3nAs-27" value="finish all subjects" style="text;html=1;align=center;verticalAlign=middle;resizable=0;points=[];autosize=1;strokeColor=none;fillColor=none;" vertex="1" parent="1">
          <mxGeometry x="359" y="230" width="110" height="30" as="geometry" />
        </mxCell>
        <mxCell id="lmZSOKVcZS9rsBFb3nAs-48" style="edgeStyle=orthogonalEdgeStyle;rounded=0;orthogonalLoop=1;jettySize=auto;html=1;entryX=0.5;entryY=1;entryDx=0;entryDy=0;" edge="1" parent="1" source="lmZSOKVcZS9rsBFb3nAs-28" target="lmZSOKVcZS9rsBFb3nAs-47">
          <mxGeometry relative="1" as="geometry" />
        </mxCell>
        <mxCell id="lmZSOKVcZS9rsBFb3nAs-28" value="&lt;div class=&quot;lake-content&quot;&gt;&lt;span style=&quot;&quot; class=&quot;ne-text&quot;&gt;Alumnus&lt;/span&gt;&lt;/div&gt;" style="whiteSpace=wrap;html=1;rounded=1;strokeColor=default;fontColor=default;" vertex="1" parent="1">
          <mxGeometry x="454" y="130" width="120" height="60" as="geometry" />
        </mxCell>
        <mxCell id="lmZSOKVcZS9rsBFb3nAs-30" value="graduate and leave" style="text;html=1;align=center;verticalAlign=middle;resizable=0;points=[];autosize=1;strokeColor=none;fillColor=none;" vertex="1" parent="1">
          <mxGeometry x="510" y="220" width="130" height="30" as="geometry" />
        </mxCell>
        <mxCell id="lmZSOKVcZS9rsBFb3nAs-31" value="Application submited" style="rounded=1;whiteSpace=wrap;html=1;" vertex="1" parent="1">
          <mxGeometry x="60" y="260" width="120" height="60" as="geometry" />
        </mxCell>
        <mxCell id="lmZSOKVcZS9rsBFb3nAs-34" style="edgeStyle=orthogonalEdgeStyle;rounded=0;orthogonalLoop=1;jettySize=auto;html=1;exitX=0.5;exitY=1;exitDx=0;exitDy=0;entryX=0.5;entryY=0;entryDx=0;entryDy=0;" edge="1" parent="1" source="lmZSOKVcZS9rsBFb3nAs-32" target="lmZSOKVcZS9rsBFb3nAs-31">
          <mxGeometry relative="1" as="geometry" />
        </mxCell>
        <mxCell id="lmZSOKVcZS9rsBFb3nAs-32" value="potential Student" style="rounded=1;whiteSpace=wrap;html=1;" vertex="1" parent="1">
          <mxGeometry x="60" y="120" width="120" height="60" as="geometry" />
        </mxCell>
        <mxCell id="lmZSOKVcZS9rsBFb3nAs-40" style="edgeStyle=orthogonalEdgeStyle;rounded=0;orthogonalLoop=1;jettySize=auto;html=1;exitX=0.5;exitY=0;exitDx=0;exitDy=0;entryX=0.5;entryY=1;entryDx=0;entryDy=0;" edge="1" parent="1" source="lmZSOKVcZS9rsBFb3nAs-38" target="lmZSOKVcZS9rsBFb3nAs-19">
          <mxGeometry relative="1" as="geometry" />
        </mxCell>
        <mxCell id="lmZSOKVcZS9rsBFb3nAs-38" value="degreeUpdated" style="whiteSpace=wrap;html=1;rounded=1;" vertex="1" parent="1">
          <mxGeometry x="260" y="410" width="120" height="60" as="geometry" />
        </mxCell>
        <mxCell id="lmZSOKVcZS9rsBFb3nAs-45" value="application approved" style="text;html=1;align=center;verticalAlign=middle;resizable=0;points=[];autosize=1;strokeColor=none;fillColor=none;" vertex="1" parent="1">
          <mxGeometry x="-5" y="340" width="130" height="30" as="geometry" />
        </mxCell>
        <mxCell id="lmZSOKVcZS9rsBFb3nAs-46" value="update degree" style="text;html=1;align=center;verticalAlign=middle;resizable=0;points=[];autosize=1;strokeColor=none;fillColor=none;" vertex="1" parent="1">
          <mxGeometry x="314" y="360" width="100" height="30" as="geometry" />
        </mxCell>
        <mxCell id="lmZSOKVcZS9rsBFb3nAs-47" value="" style="ellipse;html=1;shape=endState;fillColor=strokeColor;" vertex="1" parent="1">
          <mxGeometry x="499" y="60" width="30" height="30" as="geometry" />
        </mxCell>
      </root>
    </mxGraphModel>
  </diagram>
</mxfile>
